<?xml version="1.0" encoding="UTF-8"?>
<svg id="Lager_1" data-name="Lager 1" xmlns="http://www.w3.org/2000/svg" viewBox="0 0 885.73 572.5">
  <defs>
    <style>
      .cls-1 {
        fill: red;
      }

      .cls-2 {
        fill: #d4145a;
        stroke: #000;
        stroke-miterlimit: 10;
      }
    </style>
  </defs>
  <g>
    <rect class="cls-1" x=".5" y=".5" width="397" height="387"/>
    <path d="M397,1v386H1V1h396M398,0H0v388h398V0h0Z"/>
  </g>
  <path class="cls-2" d="M878.5,150.5c-21.59,64.78-91.08,81.67-97,83-33.26,7.5-89.56,6.57-110-23-5.94-8.6-10.52-22.03-23-25-8.81-2.1-20.44,1.29-24,9-4.66,10.1,6.58,23.18,9,26,12.36,14.39,31.15,19.3,58,26,19.78,4.93,26.1,4.65,30,11,6.18,10.07.58,27.57-10,37-11.14,9.93-26.19,9.45-36,9-30.33-1.4-52.49-2.41-69.38-3.86,14.59,26.12,22.88,56.05,22.88,87.86,0,101.9-85.07,184.5-190,184.5s-190-82.6-190-184.5,79.07-178.54,178.78-184.18c-9.31-40.12,5.08-85.23,24.72-114.82,16.53-24.92,37.19-39.43,50-47,13.53-2.29,33.26-4.49,57-3,27.62,1.73,55.97,3.51,63,19,6.41,14.12-11.6,24.87-7,49,2.29,12,10.2,27.43,23,32,20.63,7.37,45.66-16.42,61-31,42.12-40.03,36.06-65.7,67-83,22.57-12.62,54.32-14.92,78-2,40.89,22.3,48.39,84.84,34,128Z"/>
</svg>